<svg width="32" height="32" viewBox="0 0 32 32" xmlns="http://www.w3.org/2000/svg">
  <defs>
    <linearGradient id="skyGradient" x1="0%" y1="0%" x2="0%" y2="100%">
      <stop offset="0%" style="stop-color:#87CEEB;stop-opacity:1" />
      <stop offset="100%" style="stop-color:#E0F6FF;stop-opacity:1" />
    </linearGradient>
    <linearGradient id="busGradient" x1="0%" y1="0%" x2="0%" y2="100%">
      <stop offset="0%" style="stop-color:#4169E1;stop-opacity:1" />
      <stop offset="100%" style="stop-color:#1E3A8A;stop-opacity:1" />
    </linearGradient>
    <linearGradient id="groundGradient" x1="0%" y1="0%" x2="0%" y2="100%">
      <stop offset="0%" style="stop-color:#90EE90;stop-opacity:1" />
      <stop offset="100%" style="stop-color:#228B22;stop-opacity:1" />
    </linearGradient>
  </defs>
  
  <!-- Sky background -->
  <rect width="32" height="20" fill="url(#skyGradient)"/>
  
  <!-- Ground -->
  <rect y="20" width="32" height="12" fill="url(#groundGradient)"/>
  
  <!-- Bus body -->
  <rect x="4" y="12" width="24" height="12" rx="2" fill="url(#busGradient)" stroke="#000" stroke-width="0.5"/>
  
  <!-- Bus windows -->
  <rect x="6" y="14" width="4" height="3" fill="#E6F3FF" stroke="#333" stroke-width="0.3"/>
  <rect x="11" y="14" width="4" height="3" fill="#E6F3FF" stroke="#333" stroke-width="0.3"/>
  <rect x="16" y="14" width="4" height="3" fill="#E6F3FF" stroke="#333" stroke-width="0.3"/>
  <rect x="21" y="14" width="4" height="3" fill="#E6F3FF" stroke="#333" stroke-width="0.3"/>
  
  <!-- Bus door -->
  <rect x="26" y="16" width="1.5" height="6" fill="#333"/>
  
  <!-- Bus wheels -->
  <circle cx="8" cy="25" r="2.5" fill="#333" stroke="#000" stroke-width="0.5"/>
  <circle cx="8" cy="25" r="1.5" fill="#666"/>
  <circle cx="24" cy="25" r="2.5" fill="#333" stroke="#000" stroke-width="0.5"/>
  <circle cx="24" cy="25" r="1.5" fill="#666"/>
  
  <!-- Bus headlights -->
  <circle cx="3" cy="18" r="1" fill="#FFFF99" stroke="#FFD700" stroke-width="0.3"/>
  
  <!-- Bus details -->
  <rect x="4" y="20" width="24" height="1" fill="#1E3A8A"/>
  
  <!-- Crown symbol (small) -->
  <g transform="translate(14,8) scale(0.3)">
    <path d="M2,8 L4,4 L6,6 L8,2 L10,6 L12,4 L14,8 Z" fill="#FFD700" stroke="#FFA500" stroke-width="0.5"/>
    <circle cx="4" cy="4" r="0.8" fill="#FF6B6B"/>
    <circle cx="8" cy="2" r="1" fill="#4ECDC4"/>
    <circle cx="12" cy="4" r="0.8" fill="#45B7D1"/>
  </g>
</svg>