<svg width="32" height="32" viewBox="0 0 32 32" fill="none" xmlns="http://www.w3.org/2000/svg">
  <defs>
    <linearGradient id="busGradient" x1="0%" y1="0%" x2="100%" y2="100%">
      <stop offset="0%" style="stop-color:#4A90E2;stop-opacity:1" />
      <stop offset="100%" style="stop-color:#357ABD;stop-opacity:1" />
    </linearGradient>
    <linearGradient id="skyGradient" x1="0%" y1="0%" x2="100%" y2="100%">
      <stop offset="0%" style="stop-color:#87CEEB;stop-opacity:1" />
      <stop offset="100%" style="stop-color:#B0E0E6;stop-opacity:1" />
    </linearGradient>
  </defs>
  
  <!-- Sky background -->
  <rect width="32" height="16" fill="url(#skyGradient)"/>
  
  <!-- Ground -->
  <rect y="16" width="32" height="16" fill="#90EE90"/>
  
  <!-- Bus body -->
  <rect x="4" y="12" width="24" height="12" rx="2" fill="url(#busGradient)" stroke="#2C5F8A" stroke-width="0.5"/>
  
  <!-- Bus roof -->
  <rect x="6" y="10" width="20" height="2" rx="1" fill="url(#busGradient)"/>
  
  <!-- Windows -->
  <rect x="6" y="14" width="4" height="3" rx="0.5" fill="#E6F3FF" stroke="#2C5F8A" stroke-width="0.3"/>
  <rect x="11" y="14" width="4" height="3" rx="0.5" fill="#E6F3FF" stroke="#2C5F8A" stroke-width="0.3"/>
  <rect x="16" y="14" width="4" height="3" rx="0.5" fill="#E6F3FF" stroke="#2C5F8A" stroke-width="0.3"/>
  <rect x="21" y="14" width="4" height="3" rx="0.5" fill="#E6F3FF" stroke="#2C5F8A" stroke-width="0.3"/>
  
  <!-- Door -->
  <rect x="26" y="16" width="2" height="6" rx="0.3" fill="#2C5F8A"/>
  
  <!-- Wheels -->
  <circle cx="8" cy="24" r="2.5" fill="#333" stroke="#666" stroke-width="0.5"/>
  <circle cx="24" cy="24" r="2.5" fill="#333" stroke="#666" stroke-width="0.5"/>
  
  <!-- Wheel centers -->
  <circle cx="8" cy="24" r="1" fill="#888"/>
  <circle cx="24" cy="24" r="1" fill="#888"/>
  
  <!-- Headlights -->
  <circle cx="28" cy="18" r="0.8" fill="#FFFF99"/>
  
  <!-- Front grille -->
  <rect x="27" y="19" width="1" height="3" fill="#1A4A6B"/>
</svg>