<svg width="32" height="32" viewBox="0 0 32 32" fill="none" xmlns="http://www.w3.org/2000/svg">
  <defs>
    <linearGradient id="carGradient" x1="0%" y1="0%" x2="100%" y2="100%">
      <stop offset="0%" style="stop-color:#1a1a1a;stop-opacity:1" />
      <stop offset="100%" style="stop-color:#333333;stop-opacity:1" />
    </linearGradient>
    <linearGradient id="skyGradient" x1="0%" y1="0%" x2="100%" y2="100%">
      <stop offset="0%" style="stop-color:#87CEEB;stop-opacity:1" />
      <stop offset="100%" style="stop-color:#B0E0E6;stop-opacity:1" />
    </linearGradient>
  </defs>
  
  <!-- Sky background -->
  <rect width="32" height="16" fill="url(#skyGradient)"/>
  
  <!-- Ground -->
  <rect y="16" width="32" height="16" fill="#90EE90"/>
  
  <!-- Car body -->
  <path d="M4 20 L6 18 L26 18 L28 20 L28 24 L26 26 L6 26 L4 24 Z" fill="url(#carGradient)" stroke="#000" stroke-width="0.5"/>
  
  <!-- Car roof -->
  <path d="M8 18 L10 14 L22 14 L24 18" fill="url(#carGradient)" stroke="#000" stroke-width="0.5"/>
  
  <!-- Windshield -->
  <path d="M10 14 L22 14 L24 18 L8 18" fill="#87CEEB" opacity="0.7"/>
  
  <!-- Wheels -->
  <circle cx="10" cy="24" r="2" fill="#333" stroke="#666" stroke-width="0.5"/>
  <circle cx="22" cy="24" r="2" fill="#333" stroke="#666" stroke-width="0.5"/>
  
  <!-- Wheel centers -->
  <circle cx="10" cy="24" r="1" fill="#888"/>
  <circle cx="22" cy="24" r="1" fill="#888"/>
  
  <!-- Headlights -->
  <circle cx="26" cy="20" r="1" fill="#FFFF99"/>
  
  <!-- Grille -->
  <rect x="25" y="19" width="2" height="2" fill="#222"/>
</svg>